<svg width="29" height="26" viewBox="0 0 29 26" fill="none" xmlns="http://www.w3.org/2000/svg">
<path d="M28.8752 3.61268C27.8189 4.10205 26.6933 4.42643 25.5198 4.58393C26.727 3.82268 27.6484 2.62643 28.0816 1.18455C26.956 1.8933 25.7133 2.39393 24.3888 2.6733C23.32 1.47143 21.7968 0.727051 20.135 0.727051C16.9109 0.727051 14.3153 3.4908 14.3153 6.87893C14.3153 7.36643 14.3543 7.83518 14.4502 8.28142C9.6087 8.03205 5.32469 5.58143 2.44678 1.8483C1.94434 2.76893 1.64963 3.82268 1.64963 4.95705C1.64963 7.08705 2.68823 8.97517 4.23637 10.0683C3.30074 10.0496 2.38287 9.76268 1.60524 9.3108C1.60524 9.32955 1.60524 9.35393 1.60524 9.3783C1.60524 12.3671 3.62386 14.8496 6.27097 15.4214C5.79694 15.5583 5.2803 15.6239 4.74413 15.6239C4.3713 15.6239 3.99492 15.6014 3.64162 15.5189C4.39616 17.9545 6.53728 19.7452 9.08319 19.8033C7.10185 21.4402 4.58612 22.4264 1.86268 22.4264C1.3851 22.4264 0.927045 22.4039 0.468994 22.342C3.04864 24.0989 6.10586 25.102 9.40276 25.102C20.119 25.102 25.9778 15.727 25.9778 7.6008C25.9778 7.32893 25.9689 7.06642 25.9565 6.8058C27.1123 5.93955 28.0834 4.85768 28.8752 3.61268Z" fill="white"/>
</svg>
